<svg id="Message" xmlns="http://www.w3.org/2000/svg" xmlns:xlink="http://www.w3.org/1999/xlink" viewBox="0 0 1125 1569"><defs><style>.cls-1,.cls-4{fill:none;}.cls-11,.cls-15,.cls-19,.cls-2,.cls-9{isolation:isolate;}.cls-3{fill:#191717;}.cls-4{stroke:#707070;}.cls-5{fill:url(#pattern_2);}.cls-6{fill:#716f6f;}.cls-10,.cls-19,.cls-7{fill:#fff;}.cls-8{fill:#2c2b2b;}.cls-9{font-size:65.58px;fill:#0e0d0d;}.cls-19,.cls-9{font-family:HelveticaNeueLTStd-BdCn, Helvetica Neue LT Std;}.cls-10{stroke:#fff;stroke-miterlimit:10;}.cls-11,.cls-15{font-size:39.35px;font-family:HelveticaNeueLTStd-Lt, Helvetica Neue LT Std;}.cls-12{letter-spacing:-0.02em;}.cls-13,.cls-15{letter-spacing:-0.09em;}.cls-14{fill:#ea5045;}.cls-16{letter-spacing:0em;}.cls-17{letter-spacing:0em;}.cls-18{letter-spacing:-0.11em;}.cls-19{font-size:102.97px;}</style><pattern id="pattern_2" data-name="pattern 2" width="29.77" height="29.77" patternTransform="translate(383.1 1086.4) rotate(-180)" patternUnits="userSpaceOnUse" viewBox="0 0 29.77 29.77"><rect class="cls-1" width="29.77" height="29.77"/><image class="cls-2" width="131" height="140" transform="matrix(0.21, 0, 0, -0.21, 0.96, 29.77)" xlink:href="message11.png"/></pattern></defs><title>message1</title><rect id="Rectangle_8" data-name="Rectangle 8" x="87.2" y="132.52" width="952.22" height="1240.77" rx="18.36"/><g id="Group_1" data-name="Group 1"><g id="Ellipse_1" data-name="Ellipse 1"><ellipse class="cls-3" cx="219.17" cy="1458.32" rx="62.97" ry="61.42"/><ellipse class="cls-4" cx="219.17" cy="1458.32" rx="61.66" ry="60.11"/></g><path id="profile" class="cls-5" d="M219.17,1418.67h0a36.54,36.54,0,0,1,36.54,36.54v5a36.54,36.54,0,0,1-36.54,36.54h0a36.54,36.54,0,0,1-36.54-36.54v-5A36.54,36.54,0,0,1,219.17,1418.67Z"/></g><rect id="Rectangle_38" data-name="Rectangle 38" class="cls-6" x="19" y="1394.28" width="1086" height="133.78"/><g id="Rectangle_39" data-name="Rectangle 39"><rect class="cls-7" x="189.51" y="1410.01" width="747.61" height="102.3" rx="41.97"/><rect class="cls-4" x="190.82" y="1411.33" width="744.99" height="99.68" rx="40.66"/></g><g id="Ellipse_12" data-name="Ellipse 12"><ellipse class="cls-8" cx="106.88" cy="1467.72" rx="48.53" ry="49.84"/><ellipse class="cls-4" cx="106.88" cy="1467.72" rx="47.22" ry="48.53"/></g><g id="Ellipse_13" data-name="Ellipse 13"><ellipse class="cls-8" cx="1024.99" cy="1467.72" rx="48.53" ry="49.84"/><ellipse class="cls-4" cx="1024.99" cy="1467.72" rx="47.22" ry="48.53"/></g><g id="Sumbit-Arrow"><path id="Path_16" data-name="Path 16" class="cls-7" d="M1049.88,1472l-49.81-.4,25.3-38.8Z"/><rect id="Rectangle_40" data-name="Rectangle 40" class="cls-7" x="1020.76" y="1472.87" width="8.69" height="28.67"/></g><g id="MARIE" class="cls-2"><text class="cls-9" transform="translate(478.06 82.68)">MARIE</text></g><g id="Mesage-icon-left"><g id="Layer_1-2" data-name="Layer 1-2"><path id="Path_17" data-name="Path 17" class="cls-10" d="M234.1,371.22l54.64-19H643.05c7.66,0,13.85-4,13.9-9V246.42c0-4.94-6.23-8.95-13.9-9H258.68c-7.66,0-13.85,4-13.89,9v96.81c0,3.11,2.51,6,6.6,7.61Z"/></g></g><g id="Mesage-icon-left-2"><g id="Layer_1-3" data-name="Layer 1-3"><path id="Path_17-2" data-name="Path 17-2" class="cls-10" d="M234.1,811.91l54.64-19H643.05c7.66,0,13.85-4,13.9-9V687.12c0-5-6.23-9-13.9-9H258.68c-7.66,0-13.85,4-13.89,9v96.81c0,3.1,2.51,6,6.6,7.61Z"/></g></g><g id="Mesage-icon-left-3"><g id="Layer_1-4" data-name="Layer 1-4"><path id="Path_17-3" data-name="Path 17-3" class="cls-7" d="M234.1,1320.83l54.64-37.66H643.05c7.66-.05,13.85-8,13.9-17.77V1073.66c0-9.8-6.23-17.73-13.9-17.78H258.68c-7.66,0-13.85,8-13.89,17.78V1265.4a19.21,19.21,0,0,0,6.6,15.07Z"/></g></g><g id="Hey_Are_you_ready_for_Your_presentation_" data-name="Hey Are you ready for Your presentation " class="cls-2"><text class="cls-11" transform="translate(257.71 276.8)">Hey! A<tspan class="cls-12" x="111.55" y="0">r</tspan><tspan x="123.24" y="0">e you </tspan><tspan class="cls-12" x="226.76" y="0">r</tspan><tspan x="238.45" y="0">eady for</tspan></text><text class="cls-11" transform="translate(257.71 331.89)"><tspan class="cls-13">Y</tspan><tspan x="20.42" y="0">our p</tspan><tspan class="cls-12" x="109.35" y="0">r</tspan><tspan x="121.03" y="0">esentation?</tspan></text></g><g id="Mesage-icon-right"><g id="Layer_1-5" data-name="Layer 1-5"><path id="Path_18" data-name="Path 18" class="cls-14" d="M966.48,624.44l-54.57-27.78H558.1a13.59,13.59,0,0,1-13.87-13.12V442.06a13.57,13.57,0,0,1,13.87-13.12H941.91a13.58,13.58,0,0,1,13.9,13.12V583.54a13,13,0,0,1-6.59,11.12Z"/></g></g><g id="Mesage-icon-right-2"><g id="Layer_1-6" data-name="Layer 1-6"><path id="Path_18-2" data-name="Path 18-2" class="cls-14" d="M961.23,1036.28l-54.56-27.78H552.86A13.58,13.58,0,0,1,539,995.38V853.9a13.57,13.57,0,0,1,13.87-13.12h383.8a13.58,13.58,0,0,1,13.91,13.12V995.38A13,13,0,0,1,944,1006.5Z"/></g></g><g id="Yes_Slightly_nervous_about_talking_in_front_of_people_though_:_" data-name="Yes Slightly nervous about talking in front of people though : " class="cls-2"><text class="cls-15" transform="translate(572.49 470.92)">Y<tspan class="cls-16" x="20.42" y="0">es! Slightly nervous </tspan></text><text class="cls-11" transform="translate(572.49 526)">about talking in f<tspan class="cls-12" x="278.38" y="0">r</tspan><tspan x="290.07" y="0">ont</tspan></text><text class="cls-11" transform="translate(572.49 581.09)">of people though :/</text></g><g id="Ahh_I_believe_you_will_do_well" data-name="Ahh I believe you will do well" class="cls-2"><text class="cls-11" transform="translate(260.33 725.36)">Ahh, I believe you will </text><text class="cls-11" transform="translate(260.33 780.45)">do well</text></g><g id="Thanks_that_means_a_lot._I_appreciate_it_Are_you_ready_" data-name="Thanks that means a lot. I appreciate it Are you ready " class="cls-2"><text class="cls-11" transform="translate(572.49 882.75)">Thanks, that means</text><text class="cls-11" transform="translate(572.49 937.84)">a lot. I app<tspan class="cls-12" x="179.31" y="0">r</tspan><tspan class="cls-17" x="190.99" y="0">eciate it!</tspan></text><text class="cls-11" transform="translate(572.49 992.93)">A<tspan class="cls-12" x="24.79" y="0">r</tspan><tspan x="36.47" y="0">e you </tspan><tspan class="cls-12" x="140" y="0">r</tspan><tspan class="cls-17" x="151.68" y="0">eady?</tspan></text></g><g id="Yes_I_guess_I_m_just_As_nervous_as_you_are._But_it_s_natural_for_everyone." data-name="Yes I guess I m just As nervous as you are. But it s natural for everyone." class="cls-2"><text class="cls-11" transform="translate(278.7 1097.86)"><tspan class="cls-13">Y</tspan><tspan x="20.42" y="0">es, I guess I’m just</tspan></text><text class="cls-11" transform="translate(278.7 1152.94)">As nervous as you </text><text class="cls-11" transform="translate(278.7 1208.03)">a<tspan class="cls-12" x="20.42" y="0">r</tspan><tspan x="32.11" y="0">e. But it</tspan><tspan class="cls-18" x="163.29" y="0">’</tspan><tspan x="169.86" y="0">s natural </tspan></text><text class="cls-11" transform="translate(278.7 1263.12)">for everyone.</text></g><circle class="cls-6" cx="155.5" cy="383.5" r="51.5"/><circle class="cls-6" cx="155.5" cy="745.5" r="51.5"/><circle class="cls-6" cx="155.5" cy="1304.5" r="51.5"/><g id="_" data-name=" " class="cls-2"><text class="cls-19" transform="translate(74.21 1494.42)">+</text></g></svg>
