<svg xmlns="http://www.w3.org/2000/svg" viewBox="0 0 58.8 66.03"><defs><style>.cls-1{fill:#5dbd71;}.cls-2{fill:#fff;}</style></defs><title>Happy-face-green</title><g id="Layer_2" data-name="Layer 2"><g id="Layer_1-2" data-name="Layer 1"><rect class="cls-1" width="58.8" height="66.03" rx="20.18"/><path class="cls-2" d="M27.71,20.32A7.74,7.74,0,1,1,20,12.58,7.67,7.67,0,0,1,27.71,20.32Z"/><path class="cls-2" d="M50.72,32.13a21.32,21.32,0,1,1-42.63,0c0-.23,0-.46,0-.69a22.46,22.46,0,0,0,42.6,0C50.71,31.67,50.72,31.9,50.72,32.13Z"/><path class="cls-2" d="M31.09,20.32a7.74,7.74,0,1,0,7.73-7.74A7.67,7.67,0,0,0,31.09,20.32Z"/></g></g></svg>
