<svg xmlns="http://www.w3.org/2000/svg" viewBox="0 0 58.94 66.18"><defs><style>.cls-1{fill:#d92d27;}.cls-2{fill:#fff;}</style></defs><title>Sad-face-red</title><g id="Layer_2" data-name="Layer 2"><g id="Layer_1-2" data-name="Layer 1"><rect class="cls-1" width="58.94" height="66.18" rx="20.18"/><path class="cls-2" d="M27.77,20.36A7.75,7.75,0,1,1,20,12.61,7.69,7.69,0,0,1,27.77,20.36Z"/><path class="cls-2" d="M50.83,52.88a21.37,21.37,0,1,0-42.73,0c0,.23,0,.46,0,.69a22.52,22.52,0,0,1,42.7,0C50.83,53.34,50.83,53.11,50.83,52.88Z"/><path class="cls-2" d="M31.16,20.36a7.76,7.76,0,0,0,15.11,2.46,8,8,0,0,0,.39-2.46,7.75,7.75,0,0,0-15.5,0Z"/></g></g></svg>
